<svg width="609" height="94" viewBox="0 0 609 94" fill="none" xmlns="http://www.w3.org/2000/svg">
  <path
    d="M16.376 73.328C13.56 73.328 12.152 71.888 12.152 69.008C12.152 67.152 12.568 65.04 13.4 62.672C14.296 60.304 15.32 57.968 16.472 55.664C17.688 53.296 18.712 51.344 19.544 49.808C18.328 49.36 17.208 48.688 16.184 47.792C15.16 46.896 14.648 45.744 14.648 44.336C14.648 42.48 15.288 40.752 16.568 39.152C17.848 37.552 19.448 36.112 21.368 34.832C23.288 33.552 25.24 32.464 27.224 31.568C29.272 30.608 31.032 29.84 32.504 29.264C34.552 26.256 36.632 23.248 38.744 20.24C40.856 17.232 43.064 14.288 45.368 11.408C45.304 10.896 45.496 10.288 45.944 9.584C46.392 8.88 46.904 8.208 47.48 7.568C48.12 6.864 48.568 6.32 48.824 5.936C48.248 5.872 47.672 5.84 47.096 5.84C46.52 5.84 45.912 5.84 45.272 5.84C40.984 5.84 36.632 6.256 32.216 7.088C27.864 7.856 23.672 8.976 19.64 10.448C18.424 10.896 17.048 11.472 15.512 12.176C13.976 12.88 12.504 13.744 11.096 14.768C9.688 15.792 8.504 16.944 7.544 18.224C6.648 19.504 6.2 20.912 6.2 22.448C6.2 24.048 6.68 25.424 7.64 26.576C8.6 27.728 9.784 28.688 11.192 29.456C12.6 30.224 13.912 30.864 15.128 31.376C15.256 31.44 15.416 31.536 15.608 31.664C15.864 31.728 15.992 31.856 15.992 32.048C15.992 32.24 15.768 32.368 15.32 32.432C14.872 32.496 14.584 32.528 14.456 32.528C14.136 32.528 13.912 32.496 13.784 32.432C12.632 32.112 11.288 31.664 9.752 31.088C8.216 30.448 6.712 29.68 5.24 28.784C3.768 27.888 2.552 26.864 1.592 25.712C0.632 24.496 0.152 23.152 0.152 21.68C0.152 20.08 0.696 18.608 1.784 17.264C2.936 15.92 4.344 14.704 6.008 13.616C7.672 12.528 9.368 11.632 11.096 10.928C12.824 10.16 14.296 9.552 15.512 9.104C19.928 7.568 24.44 6.384 29.048 5.552C33.72 4.656 38.392 4.20799 43.064 4.20799C44.216 4.20799 45.368 4.24 46.52 4.304C47.672 4.368 48.792 4.464 49.88 4.592C50.136 4.272 50.36 3.952 50.552 3.632C50.808 3.248 51.064 2.928 51.32 2.672C51.832 2.16 52.632 1.776 53.72 1.51999C54.808 1.264 55.672 1.136 56.312 1.136C56.568 1.136 56.952 1.2 57.464 1.328C58.04 1.392 58.328 1.616 58.328 2C58.328 2.128 58.136 2.448 57.752 2.96C57.368 3.472 56.952 3.984 56.504 4.496C56.056 4.944 55.736 5.264 55.544 5.456C57.592 5.84 59.8 6.448 62.168 7.27999C64.536 8.112 66.776 9.2 68.888 10.544C71.064 11.824 72.824 13.424 74.168 15.344C75.512 17.264 76.184 19.472 76.184 21.968C76.184 24.656 75.384 27.216 73.784 29.648C72.248 32.016 70.36 34.192 68.12 36.176C65.88 38.096 63.736 39.76 61.688 41.168C58.872 43.024 55.608 44.72 51.896 46.256C48.248 47.792 44.504 49.04 40.664 50C36.824 50.896 33.208 51.344 29.816 51.344C28.792 51.344 27.8 51.312 26.84 51.248C25.88 51.12 24.92 50.992 23.96 50.864C23.256 52.336 22.424 54.16 21.464 56.336C20.568 58.512 19.768 60.688 19.064 62.864C18.424 65.104 18.104 67.056 18.104 68.72C18.104 69.296 18.2 69.904 18.392 70.544C18.584 71.184 19.032 71.504 19.736 71.504C20.248 71.504 20.792 71.408 21.368 71.216C21.944 71.088 22.488 71.024 23 71.024C23.064 71.024 23.192 71.024 23.384 71.024C23.576 71.024 23.672 71.088 23.672 71.216C23.672 71.472 23.128 71.76 22.04 72.08C21.016 72.464 19.896 72.752 18.68 72.944C17.528 73.2 16.76 73.328 16.376 73.328ZM29.528 50C31.704 50 34.232 49.616 37.112 48.848C40.056 48.016 43.16 46.896 46.424 45.488C49.688 44.016 52.856 42.32 55.928 40.4C59.064 38.48 61.88 36.4 64.376 34.16C66.936 31.92 68.952 29.584 70.424 27.152C71.96 24.72 72.728 22.32 72.728 19.952C72.728 17.776 72.12 15.92 70.904 14.384C69.688 12.784 68.12 11.472 66.2 10.448C64.344 9.36 62.36 8.496 60.248 7.856C58.2 7.216 56.312 6.768 54.584 6.512C48.76 13.296 43.32 20.272 38.264 27.44C38.904 27.248 39.8 26.992 40.952 26.672C42.168 26.352 43.384 26.064 44.6 25.808C45.816 25.488 46.712 25.328 47.288 25.328C47.544 25.328 47.672 25.392 47.672 25.52C47.672 25.776 47.544 26 47.288 26.192C47.032 26.32 46.84 26.416 46.712 26.48C46.2 26.608 45.656 26.736 45.08 26.864C44.504 26.992 43.96 27.12 43.448 27.248C42.36 27.504 41.272 27.792 40.184 28.112C39.16 28.432 38.136 28.752 37.112 29.072C34.808 32.336 32.6 35.664 30.488 39.056C28.44 42.384 26.488 45.84 24.632 49.424C26.296 49.808 27.928 50 29.528 50ZM20.696 47.792C22.36 44.976 24.024 42.224 25.688 39.536C27.416 36.848 29.176 34.192 30.968 31.568C29.944 32.016 28.728 32.688 27.32 33.584C25.912 34.416 24.504 35.376 23.096 36.464C21.752 37.552 20.6 38.736 19.64 40.016C18.744 41.232 18.296 42.48 18.296 43.76C18.296 44.592 18.52 45.36 18.968 46.064C19.48 46.704 20.056 47.28 20.696 47.792ZM65.0383 63.44C64.5903 63.44 64.3983 63.28 64.4623 62.96C66.1263 60.016 67.5983 57.008 68.8783 53.936C70.1583 50.8 71.4063 47.664 72.6223 44.528L73.6783 41.744C73.6783 41.552 73.5183 41.488 73.1983 41.552C72.8783 41.616 72.7183 41.52 72.7183 41.264C72.7183 41.136 72.9743 40.656 73.4863 39.824C73.9983 38.928 74.5423 38.032 75.1183 37.136C75.6943 36.176 76.0463 35.6 76.1743 35.408C76.4303 35.024 77.0063 34.64 77.9023 34.256C78.7983 33.872 79.4703 33.68 79.9183 33.68C80.6223 33.68 80.9743 33.968 80.9743 34.544C80.9743 34.736 80.9423 34.928 80.8783 35.12C80.8143 35.312 80.7503 35.472 80.6863 35.6C79.7263 37.904 78.6703 40.208 77.5182 42.512C76.4303 44.752 75.5343 47.088 74.8303 49.52C76.6863 47.28 78.7023 45.104 80.8783 42.992C83.1183 40.816 85.3903 38.832 87.6943 37.04C88.3343 36.528 89.0383 36.048 89.8063 35.6C90.6383 35.152 91.4703 34.928 92.3023 34.928C93.3263 34.928 93.9663 35.312 94.2223 36.08C94.4783 36.784 94.6063 37.52 94.6063 38.288C94.6063 39.312 94.2863 40.4 93.6463 41.552C93.0063 42.704 92.0783 43.28 90.8623 43.28C90.3503 43.28 90.0943 43.088 90.0943 42.704C90.0943 42.384 90.1263 42.128 90.1903 41.936C90.2543 41.68 90.2863 41.424 90.2863 41.168C90.2863 40.848 90.1583 40.464 89.9023 40.016C89.6463 39.568 89.3583 39.344 89.0383 39.344C88.2063 39.344 87.0863 39.856 85.6783 40.88C84.2703 41.904 82.7983 43.152 81.2623 44.624C79.7903 46.096 78.4463 47.536 77.2303 48.944C76.0783 50.288 75.2463 51.28 74.7343 51.92C74.0303 52.944 73.4223 54 72.9103 55.088C72.3983 56.112 71.9823 57.168 71.6623 58.256C71.5343 58.64 71.4063 59.056 71.2783 59.504C71.1503 59.888 71.0223 60.24 70.8943 60.56C70.7663 60.88 70.2863 61.296 69.4543 61.808C68.6223 62.256 67.7583 62.64 66.8623 62.96C66.0303 63.28 65.4223 63.44 65.0383 63.44ZM95.3848 62.672C93.9768 62.672 93.0488 62.448 92.6008 62C92.1528 61.552 91.9288 60.624 91.9288 59.216C91.9288 57.68 92.2808 55.92 92.9848 53.936C93.7528 51.952 94.4568 50.288 95.0968 48.944C95.0968 48.88 95.0648 48.848 95.0008 48.848C95.0008 48.784 95.0008 48.72 95.0008 48.656C95.0008 48.336 95.0968 48.08 95.2888 47.888C95.5448 47.696 95.7368 47.504 95.8648 47.312C96.1848 46.8 96.4728 46.288 96.7288 45.776C96.9848 45.264 97.2408 44.784 97.4968 44.336C98.5848 42.608 99.8968 40.944 101.433 39.344C103.033 37.744 104.825 36.656 106.809 36.08C107.513 35.888 108.185 35.792 108.825 35.792C108.953 35.792 109.081 35.824 109.209 35.888C109.401 35.888 109.497 35.952 109.497 36.08C109.497 36.272 109.305 36.496 108.921 36.752C108.601 37.008 108.377 37.2 108.249 37.328C107.225 38.16 106.105 39.44 104.889 41.168C103.737 42.896 102.809 44.304 102.105 45.392C103.577 45.136 105.017 44.944 106.425 44.816C107.897 44.688 109.337 44.688 110.745 44.816C111.449 43.792 112.089 42.544 112.665 41.072C113.305 39.536 113.625 38.128 113.625 36.848C113.625 36.144 113.529 35.728 113.337 35.6C113.209 35.472 112.857 35.408 112.281 35.408C112.153 35.408 111.961 35.376 111.705 35.312C111.449 35.248 111.321 35.12 111.321 34.928C111.321 34.672 111.609 34.448 112.185 34.256C112.761 34.064 113.369 33.936 114.009 33.872C114.649 33.744 115.065 33.68 115.257 33.68C116.985 33.68 117.849 34.48 117.849 36.08C117.849 36.976 117.561 38.064 116.985 39.344C116.473 40.56 115.801 41.712 114.969 42.8C114.201 43.824 113.433 44.56 112.665 45.008C112.857 45.008 113.241 45.104 113.817 45.296C114.457 45.424 115.033 45.584 115.545 45.776C116.121 45.968 116.409 46.192 116.409 46.448C116.409 46.64 116.217 46.768 115.833 46.832C115.449 46.832 115.193 46.832 115.065 46.832C114.489 46.832 113.913 46.8 113.337 46.736C112.761 46.608 112.185 46.544 111.609 46.544C109.817 46.544 107.993 46.672 106.137 46.928C104.345 47.184 102.553 47.504 100.761 47.888C100.121 49.04 99.3848 50.512 98.5528 52.304C97.7848 54.096 97.4008 55.696 97.4008 57.104C97.4008 59.344 98.5528 60.464 100.857 60.464C102.521 60.464 104.121 60.016 105.657 59.12C107.257 58.224 108.729 57.168 110.073 55.952C111.417 54.736 112.505 53.68 113.337 52.784C114.169 51.888 114.649 51.44 114.777 51.44C114.969 51.44 115.065 51.568 115.065 51.824C115.065 52.592 114.617 53.52 113.721 54.608C112.825 55.632 112.089 56.368 111.513 56.816C109.273 58.544 106.745 59.952 103.929 61.04C101.177 62.128 98.3288 62.672 95.3848 62.672ZM110.758 93.2C109.03 93.2 107.91 92.496 107.398 91.088C106.822 89.744 106.534 88.368 106.534 86.96C106.534 85.104 106.918 82.896 107.686 80.336C108.454 77.84 109.446 75.216 110.662 72.464C111.814 69.712 112.998 67.088 114.214 64.592C115.43 62.16 116.454 60.144 117.286 58.544C117.222 58.288 117.158 58.064 117.094 57.872C117.094 57.616 117.094 57.36 117.094 57.104C117.094 55.632 117.414 54.544 118.054 53.84C118.694 53.072 119.654 52.4 120.934 51.824C122.534 49.008 124.198 46.256 125.926 43.568C127.654 40.816 129.446 38.128 131.302 35.504C130.726 34.672 130.054 33.744 129.286 32.72C128.518 31.696 127.686 30.928 126.79 30.416C126.598 30.224 126.502 30.064 126.502 29.936C126.502 29.424 126.918 28.848 127.75 28.208C128.646 27.504 129.318 27.152 129.766 27.152C130.086 27.152 130.534 27.504 131.11 28.208C131.686 28.848 132.262 29.552 132.838 30.32C133.414 31.024 133.766 31.504 133.894 31.76C134.214 31.376 134.63 30.8 135.142 30.032C135.718 29.2 136.294 28.464 136.87 27.824C137.51 27.184 138.054 26.864 138.502 26.864C138.758 26.864 138.886 27.024 138.886 27.344C138.886 27.6 138.598 28.176 138.022 29.072C137.51 29.904 136.934 30.736 136.294 31.568C135.718 32.4 135.302 32.976 135.046 33.296C136.39 35.344 137.702 37.808 138.982 40.688C140.326 43.504 140.998 46.16 140.998 48.656C140.998 50.96 140.23 53.168 138.694 55.28C137.158 57.392 135.27 59.152 133.03 60.56C130.79 61.904 128.55 62.576 126.31 62.576C125.094 62.576 123.846 62.448 122.566 62.192C121.286 62 120.134 61.584 119.11 60.944C118.086 63.12 116.902 65.648 115.558 68.528C114.278 71.472 113.19 74.448 112.294 77.456C111.334 80.464 110.854 83.184 110.854 85.616C110.854 86.448 110.982 87.44 111.238 88.592C111.43 89.744 112.07 90.32 113.158 90.32C114.246 90.32 115.334 89.872 116.422 88.976C117.574 88.144 118.566 87.28 119.398 86.384C120.23 85.552 120.71 85.136 120.838 85.136C120.902 85.136 120.934 85.2 120.934 85.328C120.934 85.84 120.614 86.48 119.974 87.248C119.398 88.08 118.726 88.816 117.958 89.456C117.19 90.16 116.614 90.672 116.23 90.992C115.462 91.568 114.598 92.08 113.638 92.528C112.678 92.976 111.718 93.2 110.758 93.2ZM127.366 60.656C130.182 60.656 132.518 59.856 134.374 58.256C136.294 56.656 137.254 54.416 137.254 51.536C137.254 49.168 136.742 46.704 135.718 44.144C134.694 41.584 133.606 39.312 132.454 37.328C131.11 39.44 129.798 41.584 128.518 43.76C127.238 45.872 125.99 48.048 124.774 50.288C125.158 50.032 125.542 49.904 125.926 49.904C126.246 49.904 126.406 50.032 126.406 50.288C126.406 50.928 126.022 51.44 125.254 51.824C124.486 52.144 123.878 52.432 123.43 52.688C122.982 53.52 122.502 54.384 121.99 55.28C121.542 56.176 121.094 57.072 120.646 57.968C121.286 58.992 122.31 59.696 123.718 60.08C125.126 60.464 126.342 60.656 127.366 60.656ZM164.161 62.768C162.433 62.768 161.281 62.096 160.705 60.752C160.129 59.344 159.841 57.936 159.841 56.528C159.841 54.928 159.969 53.328 160.225 51.728C160.481 50.128 160.769 48.56 161.089 47.024C160.449 48.112 159.425 49.52 158.017 51.248C156.609 52.976 155.041 54.736 153.312 56.528C151.585 58.256 149.825 59.728 148.033 60.944C146.305 62.096 144.769 62.672 143.425 62.672C142.657 62.672 142.145 62.416 141.889 61.904C141.697 61.392 141.601 60.816 141.601 60.176C141.601 58.832 141.921 57.136 142.561 55.088C143.201 53.04 144.097 50.896 145.249 48.656C146.401 46.352 147.681 44.24 149.089 42.32C150.561 40.4 152.065 38.864 153.601 37.712C155.201 36.496 156.801 35.952 158.401 36.08C159.105 35.696 159.873 35.344 160.705 35.024C161.537 34.704 162.369 34.544 163.201 34.544C163.841 34.544 164.481 34.608 165.121 34.736C165.825 34.8 166.497 34.896 167.137 35.024C167.457 34.896 167.809 34.768 168.193 34.64C168.577 34.512 168.961 34.448 169.345 34.448C170.049 34.448 170.401 34.768 170.401 35.408C170.401 35.728 170.209 36.368 169.825 37.328C169.505 38.224 169.121 39.088 168.673 39.92C168.289 40.688 167.969 41.136 167.713 41.264C167.137 42.416 166.593 43.92 166.081 45.776C165.569 47.568 165.153 49.424 164.833 51.344C164.513 53.264 164.353 54.896 164.353 56.24C164.353 56.944 164.449 57.744 164.641 58.64C164.897 59.472 165.505 59.888 166.465 59.888C167.553 59.888 168.641 59.472 169.729 58.64C170.881 57.744 171.873 56.88 172.705 56.048C173.537 55.152 174.017 54.704 174.145 54.704C174.273 54.704 174.337 54.768 174.337 54.896C174.337 55.472 174.017 56.144 173.377 56.912C172.737 57.68 172.033 58.416 171.265 59.12C170.497 59.76 169.921 60.24 169.536 60.56C168.769 61.136 167.905 61.648 166.945 62.096C166.049 62.544 165.121 62.768 164.161 62.768ZM146.785 59.408C147.105 59.408 147.489 59.28 147.937 59.024C148.385 58.704 148.737 58.448 148.993 58.256C152.833 55.504 155.841 52.336 158.017 48.752C160.193 45.168 162.305 41.328 164.353 37.232C164.097 37.104 163.809 37.008 163.489 36.944C163.169 36.88 162.849 36.848 162.529 36.848C161.313 36.848 160.097 37.168 158.881 37.808C157.729 38.448 156.769 39.216 156.001 40.112C154.785 41.392 153.537 43.088 152.257 45.2C151.041 47.248 149.921 49.392 148.897 51.632C147.873 53.808 147.105 55.76 146.593 57.488C146.529 57.68 146.465 57.872 146.401 58.064C146.337 58.256 146.305 58.48 146.305 58.736C146.305 59.184 146.465 59.408 146.785 59.408ZM173.601 63.44C173.153 63.44 172.961 63.28 173.025 62.96C174.689 60.016 176.161 57.008 177.441 53.936C178.721 50.8 179.969 47.664 181.185 44.528L182.241 41.744C182.241 41.552 182.081 41.488 181.761 41.552C181.441 41.616 181.281 41.52 181.281 41.264C181.281 41.136 181.537 40.656 182.049 39.824C182.561 38.928 183.105 38.032 183.681 37.136C184.257 36.176 184.609 35.6 184.737 35.408C184.993 35.024 185.569 34.64 186.465 34.256C187.361 33.872 188.033 33.68 188.481 33.68C189.185 33.68 189.537 33.968 189.537 34.544C189.537 34.736 189.505 34.928 189.441 35.12C189.377 35.312 189.313 35.472 189.249 35.6C188.289 37.904 187.233 40.208 186.081 42.512C184.993 44.752 184.097 47.088 183.393 49.52C185.249 47.28 187.265 45.104 189.441 42.992C191.681 40.816 193.953 38.832 196.257 37.04C196.897 36.528 197.601 36.048 198.369 35.6C199.201 35.152 200.033 34.928 200.865 34.928C201.889 34.928 202.529 35.312 202.785 36.08C203.041 36.784 203.169 37.52 203.169 38.288C203.169 39.312 202.849 40.4 202.209 41.552C201.569 42.704 200.641 43.28 199.425 43.28C198.913 43.28 198.657 43.088 198.657 42.704C198.657 42.384 198.689 42.128 198.753 41.936C198.817 41.68 198.849 41.424 198.849 41.168C198.849 40.848 198.721 40.464 198.465 40.016C198.209 39.568 197.921 39.344 197.601 39.344C196.769 39.344 195.649 39.856 194.241 40.88C192.833 41.904 191.361 43.152 189.825 44.624C188.353 46.096 187.009 47.536 185.793 48.944C184.641 50.288 183.809 51.28 183.297 51.92C182.593 52.944 181.985 54 181.473 55.088C180.961 56.112 180.545 57.168 180.225 58.256C180.097 58.64 179.969 59.056 179.841 59.504C179.713 59.888 179.585 60.24 179.457 60.56C179.329 60.88 178.849 61.296 178.017 61.808C177.185 62.256 176.321 62.64 175.425 62.96C174.593 63.28 173.985 63.44 173.601 63.44ZM222.379 62.768C220.651 62.768 219.499 62.096 218.923 60.752C218.347 59.344 218.059 57.936 218.059 56.528C218.059 54.928 218.187 53.328 218.443 51.728C218.699 50.128 218.987 48.56 219.307 47.024C218.667 48.112 217.643 49.52 216.235 51.248C214.827 52.976 213.259 54.736 211.531 56.528C209.803 58.256 208.043 59.728 206.251 60.944C204.523 62.096 202.987 62.672 201.643 62.672C200.875 62.672 200.363 62.416 200.107 61.904C199.915 61.392 199.819 60.816 199.819 60.176C199.819 58.832 200.139 57.136 200.779 55.088C201.419 53.04 202.315 50.896 203.467 48.656C204.619 46.352 205.899 44.24 207.307 42.32C208.779 40.4 210.283 38.864 211.819 37.712C213.419 36.496 215.019 35.952 216.619 36.08C217.323 35.696 218.091 35.344 218.923 35.024C219.755 34.704 220.587 34.544 221.419 34.544C222.059 34.544 222.699 34.608 223.339 34.736C224.043 34.8 224.715 34.896 225.355 35.024C225.675 34.896 226.027 34.768 226.411 34.64C226.795 34.512 227.179 34.448 227.563 34.448C228.267 34.448 228.619 34.768 228.619 35.408C228.619 35.728 228.427 36.368 228.043 37.328C227.723 38.224 227.339 39.088 226.891 39.92C226.507 40.688 226.187 41.136 225.931 41.264C225.355 42.416 224.811 43.92 224.299 45.776C223.787 47.568 223.371 49.424 223.051 51.344C222.731 53.264 222.571 54.896 222.571 56.24C222.571 56.944 222.667 57.744 222.859 58.64C223.115 59.472 223.723 59.888 224.683 59.888C225.771 59.888 226.859 59.472 227.947 58.64C229.099 57.744 230.091 56.88 230.923 56.048C231.755 55.152 232.235 54.704 232.363 54.704C232.491 54.704 232.555 54.768 232.555 54.896C232.555 55.472 232.235 56.144 231.595 56.912C230.955 57.68 230.251 58.416 229.483 59.12C228.715 59.76 228.139 60.24 227.755 60.56C226.987 61.136 226.123 61.648 225.163 62.096C224.267 62.544 223.339 62.768 222.379 62.768ZM205.003 59.408C205.323 59.408 205.707 59.28 206.155 59.024C206.603 58.704 206.955 58.448 207.211 58.256C211.051 55.504 214.059 52.336 216.235 48.752C218.411 45.168 220.523 41.328 222.571 37.232C222.315 37.104 222.027 37.008 221.707 36.944C221.387 36.88 221.067 36.848 220.747 36.848C219.531 36.848 218.315 37.168 217.099 37.808C215.947 38.448 214.987 39.216 214.219 40.112C213.003 41.392 211.755 43.088 210.475 45.2C209.259 47.248 208.139 49.392 207.115 51.632C206.091 53.808 205.323 55.76 204.811 57.488C204.747 57.68 204.683 57.872 204.619 58.064C204.555 58.256 204.523 58.48 204.523 58.736C204.523 59.184 204.683 59.408 205.003 59.408ZM234.508 62.672C233.1 62.672 232.172 62.448 231.724 62C231.276 61.552 231.052 60.624 231.052 59.216C231.052 58 231.18 56.976 231.436 56.144C231.948 54.416 232.62 52.528 233.452 50.48C234.348 48.368 235.404 46.32 236.62 44.336C237.836 42.352 239.212 40.624 240.748 39.152C242.348 37.68 244.076 36.656 245.932 36.08C247.212 35.696 248.46 35.248 249.676 34.736C250.892 34.16 252.172 33.872 253.516 33.872C254.476 33.872 255.276 34.16 255.916 34.736C256.62 35.312 256.972 36.112 256.972 37.136C256.972 37.904 256.748 38.768 256.3 39.728C255.852 40.688 255.244 41.52 254.476 42.224C253.772 42.864 252.972 43.184 252.076 43.184C251.82 43.184 251.692 43.088 251.692 42.896C251.692 42.704 251.756 42.544 251.884 42.416C252.204 41.84 252.396 41.232 252.46 40.592C252.588 39.888 252.652 39.216 252.652 38.576C252.652 37.936 252.556 37.328 252.364 36.752C252.236 36.112 251.788 35.792 251.02 35.792C250.38 35.792 249.74 35.984 249.1 36.368C248.46 36.688 247.884 37.008 247.372 37.328C246.476 37.968 245.388 39.152 244.108 40.88C242.892 42.544 241.708 44.432 240.556 46.544C239.404 48.592 238.444 50.576 237.676 52.496C236.908 54.416 236.523 55.952 236.523 57.104C236.523 59.344 237.676 60.464 239.98 60.464C241.644 60.464 243.244 60.016 244.78 59.12C246.38 58.224 247.82 57.168 249.1 55.952C250.444 54.736 251.532 53.68 252.364 52.784C253.196 51.888 253.676 51.44 253.804 51.44C254.06 51.44 254.188 51.568 254.188 51.824C254.188 52.592 253.708 53.488 252.748 54.512C251.852 55.536 251.148 56.304 250.636 56.816C248.332 58.544 245.772 59.952 242.956 61.04C240.204 62.128 237.388 62.672 234.508 62.672ZM265.746 30.896C265.554 30.896 265.426 30.672 265.362 30.224C265.362 29.712 265.362 29.392 265.362 29.264C265.362 29.072 265.394 28.656 265.458 28.016C265.522 27.376 265.714 27.024 266.034 26.96C266.93 26.832 267.826 26.672 268.722 26.48C269.618 26.288 270.514 26.064 271.41 25.808C271.538 25.744 271.73 25.712 271.986 25.712C272.306 25.712 272.466 25.872 272.466 26.192C272.466 26.896 272.018 27.632 271.122 28.4C270.29 29.104 269.33 29.712 268.242 30.224C267.218 30.672 266.386 30.896 265.746 30.896ZM257.97 62C254.834 62 253.266 60.4 253.266 57.2C253.266 55.856 253.458 54.48 253.842 53.072C254.29 51.664 254.77 50.352 255.282 49.136C255.858 47.728 256.498 46.352 257.202 45.008C257.906 43.664 258.61 42.32 259.314 40.976C259.634 40.4 259.922 39.824 260.178 39.248C260.498 38.608 260.818 38 261.138 37.424C261.458 36.976 262.066 36.592 262.962 36.272C263.858 35.952 264.562 35.792 265.074 35.792C265.138 35.792 265.138 35.824 265.074 35.888C265.01 35.888 264.978 35.888 264.978 35.888C265.042 35.888 265.074 35.92 265.074 35.984C265.202 35.856 265.362 35.792 265.554 35.792C265.81 35.792 265.97 35.92 266.034 36.176C266.098 36.368 266.13 36.56 266.13 36.752C266.13 37.2 265.938 37.872 265.554 38.768C265.234 39.664 264.818 40.528 264.306 41.36C263.858 42.128 263.41 42.608 262.962 42.8C262.386 44.144 261.618 45.616 260.658 47.216C259.762 48.816 258.93 50.448 258.162 52.112C257.394 53.712 257.01 55.28 257.01 56.816C257.01 58.608 257.97 59.504 259.89 59.504C260.786 59.504 261.746 59.216 262.77 58.64C263.858 58.064 264.914 57.392 265.938 56.624C266.962 55.792 267.826 55.088 268.53 54.512C269.298 53.936 269.778 53.648 269.97 53.648C270.034 53.648 270.066 53.68 270.066 53.744C270.066 54 269.97 54.288 269.778 54.608C269.586 54.864 269.426 55.056 269.298 55.184C268.53 56.208 267.506 57.264 266.226 58.352C264.946 59.376 263.57 60.24 262.098 60.944C260.69 61.648 259.314 62 257.97 62ZM271.66 62.768C270.252 62.768 269.132 62.512 268.3 62C267.532 61.424 267.148 60.336 267.148 58.736C267.148 56.752 267.66 54.544 268.684 52.112C269.772 49.68 271.052 47.344 272.523 45.104C273.996 42.8 275.372 40.912 276.652 39.44V39.248C276.652 37.712 277.26 36.464 278.476 35.504C279.756 34.48 281.228 33.744 282.892 33.296C284.556 32.784 285.996 32.528 287.212 32.528C288.876 32.528 290.252 32.912 291.34 33.68C292.492 34.448 293.068 35.76 293.068 37.616C293.068 39.216 292.652 41.072 291.82 43.184C290.988 45.232 289.9 47.344 288.556 49.52C287.276 51.632 285.9 53.584 284.428 55.376C282.956 57.104 281.612 58.48 280.396 59.504C281.356 60.656 282.604 61.232 284.14 61.232C284.268 61.232 284.428 61.264 284.62 61.328C284.812 61.392 284.908 61.488 284.908 61.616C284.908 61.872 284.78 62.032 284.524 62.096C284.332 62.16 284.14 62.192 283.948 62.192C283.116 62.192 282.316 62 281.548 61.616C280.844 61.168 280.204 60.624 279.628 59.984C277.26 61.84 274.604 62.768 271.66 62.768ZM279.532 58.256C280.94 56.912 282.316 55.056 283.66 52.688C285.068 50.256 286.252 47.76 287.212 45.2C288.172 42.576 288.652 40.304 288.652 38.384C288.652 37.616 288.492 36.816 288.172 35.984C287.852 35.152 287.18 34.736 286.156 34.736C285.388 34.736 284.652 35.024 283.948 35.6C283.244 36.176 282.732 36.816 282.412 37.52C282.54 37.712 282.668 37.968 282.796 38.288C282.988 38.608 283.084 38.896 283.084 39.152C283.084 39.408 283.02 39.568 282.892 39.632C282.06 40.08 281.26 40.592 280.492 41.168C279.788 41.68 279.084 42.288 278.38 42.992C278.124 43.952 277.932 44.944 277.804 45.968C277.676 46.992 277.612 48.016 277.612 49.04C277.612 50.512 277.74 52.08 277.996 53.744C278.316 55.408 278.828 56.912 279.532 58.256ZM275.5 60.368C276.14 60.368 276.716 60.24 277.228 59.984C277.804 59.664 278.316 59.312 278.764 58.928C277.74 57.328 277.004 55.472 276.556 53.36C276.108 51.248 275.884 49.264 275.884 47.408C275.052 48.752 274.284 50.16 273.58 51.632C272.876 53.04 272.523 54.576 272.523 56.24C272.523 57.2 272.716 58.128 273.1 59.024C273.548 59.92 274.348 60.368 275.5 60.368ZM285.196 29.36C284.812 29.36 284.62 29.232 284.62 28.976C284.62 28.656 284.94 28.272 285.58 27.824C287.436 26.48 289.164 25.2 290.764 23.984C292.428 22.768 294.188 21.296 296.044 19.568L296.428 19.376C296.684 19.44 296.908 19.664 297.1 20.048C297.356 20.432 297.484 20.88 297.484 21.392C297.484 22.416 296.94 23.344 295.852 24.176C294.508 25.2 292.94 26.16 291.148 27.056C289.42 27.952 287.724 28.656 286.06 29.168C285.868 29.232 285.708 29.296 285.58 29.36C285.452 29.36 285.324 29.36 285.196 29.36ZM292.288 63.44C291.84 63.44 291.648 63.28 291.712 62.96C293.504 59.888 295.136 56.752 296.608 53.552C298.144 50.352 299.584 47.12 300.928 43.856C300.928 43.728 301.056 43.376 301.312 42.8C301.568 42.16 301.696 41.808 301.696 41.744C301.696 41.552 301.536 41.488 301.216 41.552C300.896 41.616 300.736 41.52 300.736 41.264C300.736 41.136 300.992 40.656 301.504 39.824C302.016 38.928 302.56 38.032 303.136 37.136C303.712 36.176 304.064 35.6 304.192 35.408C304.512 35.024 305.12 34.64 306.016 34.256C306.912 33.872 307.584 33.68 308.032 33.68C308.672 33.68 308.992 33.968 308.992 34.544C308.992 34.736 308.768 35.376 308.32 36.464C307.872 37.552 307.296 38.832 306.592 40.304C305.888 41.776 305.184 43.28 304.48 44.816C303.776 46.352 303.136 47.696 302.56 48.848C301.984 50 301.6 50.768 301.408 51.152C301.92 50.512 302.752 49.584 303.904 48.368C305.12 47.088 306.464 45.712 307.936 44.24C309.472 42.768 311.008 41.36 312.544 40.016C314.08 38.608 315.456 37.488 316.672 36.656C317.952 35.76 318.944 35.312 319.648 35.312C320.16 35.312 320.448 35.504 320.512 35.888C320.64 36.272 320.704 36.624 320.704 36.944C320.704 37.776 320.608 38.64 320.416 39.536C320.224 40.432 320 41.296 319.744 42.128C319.232 44.048 318.592 46.32 317.824 48.944C317.12 51.504 316.768 53.744 316.768 55.664C316.768 56.624 316.928 57.52 317.248 58.352C317.632 59.12 318.4 59.504 319.552 59.504C320.448 59.504 321.376 59.216 322.336 58.64C323.36 58.064 324.288 57.392 325.12 56.624C326.016 55.792 326.784 55.088 327.424 54.512C328.128 53.936 328.576 53.648 328.768 53.648C328.832 53.648 328.864 53.712 328.864 53.84C328.864 54.032 328.8 54.288 328.672 54.608C328.608 54.864 328.512 55.056 328.384 55.184C327.36 56.784 325.856 58.32 323.872 59.792C321.952 61.264 320.032 62 318.112 62C316.128 62 314.624 61.424 313.6 60.272C312.64 59.056 312.16 57.488 312.16 55.568C312.16 53.904 312.448 52.048 313.024 50C313.664 47.952 314.208 46.096 314.656 44.432C314.784 43.92 314.944 43.312 315.136 42.608C315.392 41.904 315.52 41.296 315.52 40.784C315.52 40.656 315.488 40.496 315.424 40.304C315.36 40.112 315.232 40.016 315.04 40.016C314.72 40.016 314.304 40.208 313.792 40.592C313.344 40.912 312.992 41.168 312.736 41.36C311.52 42.384 310.144 43.696 308.608 45.296C307.136 46.896 305.664 48.656 304.192 50.576C302.72 52.432 301.376 54.256 300.16 56.048C298.944 57.84 297.984 59.44 297.28 60.848C297.152 61.168 296.736 61.552 296.032 62C295.392 62.384 294.688 62.704 293.92 62.96C293.216 63.28 292.672 63.44 292.288 63.44ZM379.429 65.744C377.061 65.744 374.597 65.488 372.037 64.976C369.477 64.528 367.077 63.728 364.837 62.576C362.597 61.488 360.709 60.016 359.173 58.16C357.637 56.304 356.677 54 356.293 51.248C355.077 50.672 353.797 49.904 352.453 48.944C351.109 47.92 349.989 46.768 349.093 45.488C348.133 44.144 347.653 42.736 347.653 41.264C347.653 39.6 348.229 38.16 349.381 36.944C350.469 35.728 351.845 34.672 353.509 33.776C355.173 32.816 356.869 32.048 358.597 31.472C360.325 30.896 361.797 30.48 363.013 30.224C366.853 24.848 371.461 20.208 376.837 16.304C382.213 12.336 388.037 9.2 394.309 6.896C400.581 4.592 406.981 3.248 413.509 2.86399C413.765 2.8 414.117 2.768 414.565 2.768C415.781 2.768 417.157 2.928 418.693 3.248C420.293 3.504 421.829 3.984 423.301 4.688C424.773 5.328 425.861 6.192 426.565 7.27999C426.885 6.768 427.365 5.968 428.005 4.88C428.709 3.792 429.061 2.992 429.061 2.48C429.061 2.16 429.189 1.808 429.445 1.424C429.701 1.04 430.021 0.847998 430.405 0.847998C430.725 0.847998 430.885 1.008 430.885 1.328C430.949 1.584 430.981 1.808 430.981 2C430.981 2.384 430.757 3.088 430.309 4.112C429.925 5.136 429.477 6.16 428.965 7.184C428.517 8.144 428.197 8.848 428.005 9.296C428.261 9.744 428.581 10.416 428.965 11.312C429.413 12.208 429.637 12.912 429.637 13.424C429.637 13.68 429.509 14.16 429.253 14.864C429.061 15.568 428.805 15.984 428.485 16.112C428.421 16.112 428.325 15.984 428.197 15.728C428.133 15.28 428.005 14.896 427.813 14.576C427.621 14.192 427.397 13.808 427.141 13.424C426.821 13.872 426.661 14.32 426.661 14.768C426.661 15.216 426.437 15.76 425.989 16.4C425.605 16.976 425.253 17.424 424.933 17.744C424.357 18.384 423.621 18.704 422.725 18.704C422.341 18.704 421.957 18.672 421.573 18.608C421.189 18.48 420.997 18.192 420.997 17.744C420.997 17.04 421.221 16.24 421.669 15.344C422.117 14.384 422.629 13.456 423.205 12.56C423.781 11.6 424.229 10.832 424.549 10.256C423.461 8.208 421.957 6.8 420.037 6.032C418.181 5.2 416.133 4.784 413.893 4.784C408.389 4.784 402.917 5.904 397.477 8.144C392.037 10.32 387.013 13.232 382.405 16.88C377.797 20.528 373.893 24.528 370.693 28.88C371.525 28.752 372.325 28.656 373.093 28.592C373.925 28.528 374.757 28.464 375.589 28.4C380.453 28.08 385.349 27.792 390.277 27.536C395.205 27.28 400.101 27.152 404.965 27.152H408.229C409.189 27.152 410.149 27.184 411.109 27.248C412.133 27.312 413.061 27.44 413.893 27.632C413.957 27.632 414.181 27.696 414.565 27.824C414.949 27.888 415.141 28.016 415.141 28.208C415.141 28.464 414.693 28.72 413.797 28.976C412.965 29.168 412.421 29.264 412.165 29.264C410.565 29.392 408.901 29.488 407.173 29.552C405.509 29.616 403.845 29.712 402.181 29.84C398.789 30.032 395.365 30.224 391.909 30.416C388.517 30.608 385.125 30.864 381.733 31.184C379.941 31.312 378.117 31.472 376.261 31.664C374.405 31.792 372.549 32.016 370.693 32.336L368.005 32.912C366.597 35.28 365.381 37.84 364.357 40.592C363.333 43.28 362.821 46.032 362.821 48.848C362.821 49.808 362.917 50.768 363.109 51.728C365.989 52.56 369.061 53.296 372.325 53.936C375.589 54.576 378.725 54.896 381.733 54.896C382.053 54.896 382.373 54.896 382.693 54.896C383.013 54.832 383.301 54.8 383.557 54.8C383.621 54.8 383.749 54.8 383.941 54.8C384.133 54.8 384.229 54.864 384.229 54.992C384.229 55.248 383.781 55.44 382.885 55.568C382.053 55.632 381.573 55.664 381.445 55.664C378.501 55.664 375.493 55.536 372.421 55.28C369.413 54.96 366.469 54.48 363.589 53.84C364.485 56.464 365.925 58.544 367.909 60.08C369.957 61.552 372.261 62.576 374.821 63.152C377.381 63.792 379.909 64.112 382.405 64.112C387.205 64.112 392.037 63.376 396.901 61.904C401.765 60.368 406.437 58.384 410.917 55.952C415.461 53.456 419.589 50.8 423.301 47.984C423.429 47.856 423.653 47.696 423.973 47.504C424.293 47.248 424.517 47.12 424.645 47.12C424.709 47.12 424.741 47.216 424.741 47.408C424.741 47.6 424.421 47.984 423.781 48.56C423.141 49.072 422.501 49.648 421.861 50.288C421.221 50.864 420.901 51.344 420.901 51.728C420.901 51.792 420.901 51.888 420.901 52.016C420.965 52.144 420.997 52.272 420.997 52.4C420.997 52.528 420.933 52.656 420.805 52.784C419.653 54.192 417.797 55.568 415.237 56.912C412.677 58.192 409.733 59.376 406.405 60.464C403.141 61.552 399.781 62.48 396.325 63.248C392.869 64.016 389.637 64.624 386.629 65.072C383.685 65.52 381.285 65.744 379.429 65.744ZM356.101 49.232V48.656C356.101 46.224 356.453 43.856 357.157 41.552C357.925 39.248 358.885 37.072 360.037 35.024C359.013 35.344 357.765 35.856 356.293 36.56C354.821 37.264 353.509 38.128 352.357 39.152C351.205 40.176 350.629 41.36 350.629 42.704C350.629 44.112 351.237 45.424 352.453 46.64C353.669 47.792 354.885 48.656 356.101 49.232ZM416.196 71.12C415.812 71.12 415.588 70.928 415.524 70.544C415.46 70.16 415.428 69.84 415.428 69.584C415.428 68.816 415.588 68.048 415.908 67.28C416.164 66.576 416.516 65.904 416.964 65.264C417.476 64.432 418.084 63.632 418.788 62.864C419.492 62.16 420.196 61.456 420.9 60.752C422.244 59.408 423.62 58.064 425.028 56.72C426.5 55.376 427.94 54.064 429.348 52.784C430.244 52.08 431.108 51.344 431.94 50.576C432.836 49.808 433.668 49.008 434.436 48.176C434.436 47.792 434.436 47.44 434.436 47.12C434.5 46.736 434.532 46.352 434.532 45.968C434.532 45.264 434.5 44.592 434.436 43.952C434.372 43.312 434.276 42.672 434.148 42.032C434.02 42.16 433.828 42.224 433.572 42.224C433.252 42.224 432.996 41.968 432.804 41.456C432.676 40.944 432.58 40.4 432.516 39.824C432.516 39.248 432.516 38.864 432.516 38.672C432.516 38.16 432.548 37.68 432.612 37.232C432.74 36.72 432.964 36.272 433.284 35.888C433.412 35.76 433.732 35.536 434.244 35.216C434.82 34.896 435.364 34.608 435.876 34.352C436.452 34.032 436.836 33.872 437.028 33.872H437.124C437.636 33.872 438.02 34.352 438.276 35.312C438.596 36.272 438.82 37.424 438.948 38.768C439.076 40.112 439.14 41.36 439.14 42.512C439.14 43.664 439.14 44.432 439.14 44.816C439.524 44.368 440.388 43.536 441.732 42.32C443.076 41.04 444.612 39.696 446.34 38.288C448.068 36.816 449.636 35.536 451.044 34.448C452.516 33.296 453.476 32.592 453.924 32.336C454.052 32.272 454.18 32.208 454.308 32.144C454.5 32.08 454.692 32.048 454.884 32.048C455.268 32.048 455.46 32.272 455.46 32.72C455.46 33.168 455.236 33.776 454.788 34.544C454.404 35.312 454.02 35.792 453.636 35.984C453.572 36.048 453.38 36.112 453.06 36.176C452.74 36.24 452.58 36.24 452.58 36.176C447.908 39.312 443.396 42.864 439.044 46.832V47.792C439.044 48.432 439.076 49.552 439.14 51.152C439.204 52.752 439.332 54.448 439.524 56.24C439.716 58.032 440.068 59.6 440.58 60.944C441.092 62.224 441.764 62.864 442.596 62.864C443.492 62.864 444.324 62.48 445.092 61.712C445.924 60.88 446.692 59.888 447.396 58.736C448.1 57.52 448.676 56.336 449.124 55.184C449.636 54.032 449.988 53.104 450.18 52.4C450.18 52.272 450.244 52.048 450.372 51.728C450.5 51.344 450.66 51.152 450.852 51.152C451.108 51.152 451.268 51.472 451.332 52.112C451.396 52.752 451.428 53.136 451.428 53.264C451.428 54.992 450.948 56.592 449.988 58.064C449.348 59.024 448.516 60.08 447.492 61.232C446.532 62.32 445.444 63.28 444.228 64.112C443.076 64.944 441.86 65.36 440.58 65.36C439.748 65.36 438.98 65.104 438.276 64.592C437.572 64.144 436.964 63.312 436.452 62.096C436.004 60.88 435.62 59.504 435.3 57.968C435.044 56.432 434.852 54.96 434.724 53.552C434.66 52.144 434.628 51.024 434.628 50.192C433.476 51.28 432.1 52.56 430.5 54.032C428.9 55.504 427.268 57.04 425.604 58.64C423.94 60.176 422.404 61.712 420.996 63.248C419.588 64.848 418.532 66.288 417.828 67.568C417.444 68.272 417.156 69.104 416.964 70.064C416.9 70.32 416.836 70.544 416.772 70.736C416.708 70.992 416.516 71.12 416.196 71.12ZM453.32 62.672C451.912 62.672 450.984 62.448 450.536 62C450.088 61.552 449.864 60.624 449.864 59.216C449.864 58 449.992 56.976 450.248 56.144C450.76 54.416 451.432 52.528 452.264 50.48C453.16 48.368 454.216 46.32 455.432 44.336C456.648 42.352 458.024 40.624 459.56 39.152C461.16 37.68 462.888 36.656 464.744 36.08C466.024 35.696 467.272 35.248 468.488 34.736C469.704 34.16 470.984 33.872 472.328 33.872C473.288 33.872 474.088 34.16 474.728 34.736C475.432 35.312 475.784 36.112 475.784 37.136C475.784 37.904 475.56 38.768 475.112 39.728C474.664 40.688 474.056 41.52 473.288 42.224C472.584 42.864 471.784 43.184 470.888 43.184C470.632 43.184 470.504 43.088 470.504 42.896C470.504 42.704 470.568 42.544 470.696 42.416C471.016 41.84 471.208 41.232 471.272 40.592C471.4 39.888 471.464 39.216 471.464 38.576C471.464 37.936 471.368 37.328 471.176 36.752C471.048 36.112 470.6 35.792 469.832 35.792C469.192 35.792 468.552 35.984 467.912 36.368C467.272 36.688 466.696 37.008 466.184 37.328C465.288 37.968 464.2 39.152 462.92 40.88C461.704 42.544 460.52 44.432 459.368 46.544C458.216 48.592 457.256 50.576 456.488 52.496C455.72 54.416 455.336 55.952 455.336 57.104C455.336 59.344 456.488 60.464 458.792 60.464C460.456 60.464 462.056 60.016 463.592 59.12C465.192 58.224 466.632 57.168 467.912 55.952C469.256 54.736 470.344 53.68 471.176 52.784C472.008 51.888 472.488 51.44 472.616 51.44C472.872 51.44 473 51.568 473 51.824C473 52.592 472.52 53.488 471.56 54.512C470.664 55.536 469.96 56.304 469.448 56.816C467.144 58.544 464.584 59.952 461.768 61.04C459.016 62.128 456.2 62.672 453.32 62.672ZM475.726 62.192C473.934 62.192 473.038 61.264 473.038 59.408C473.038 58.576 473.166 57.68 473.422 56.72C473.742 55.76 474.03 54.896 474.286 54.128C476.014 49.648 478.126 44.976 480.622 40.112C483.118 35.184 485.774 30.384 488.59 25.712C491.406 20.976 494.158 16.624 496.846 12.656C496.718 12.144 496.654 11.696 496.654 11.312C496.654 10.992 496.686 10.736 496.75 10.544C496.942 10.288 497.294 9.744 497.806 8.912C498.318 8.08 498.83 7.28 499.342 6.512C499.918 5.68 500.27 5.2 500.398 5.07199C500.718 4.688 501.326 4.4 502.222 4.20799C503.182 4.016 503.918 3.92 504.43 3.92C504.75 3.92 505.23 3.984 505.87 4.112C506.574 4.17599 506.926 4.432 506.926 4.88C506.926 5.072 506.894 5.168 506.83 5.168C505.806 6.64 504.75 8.144 503.662 9.68C502.638 11.152 501.614 12.624 500.59 14.096C496.878 19.664 493.39 25.36 490.126 31.184C486.926 36.944 483.854 42.8 480.91 48.752C480.334 49.84 479.694 51.216 478.99 52.88C478.35 54.544 478.03 55.984 478.03 57.2C478.03 58.416 478.51 59.024 479.47 59.024C480.302 59.024 481.23 58.736 482.254 58.16C483.278 57.584 484.238 56.944 485.134 56.24C486.094 55.472 486.894 54.8 487.534 54.224C488.238 53.648 488.686 53.36 488.878 53.36C489.006 53.36 489.07 53.488 489.07 53.744C489.07 54 488.942 54.352 488.686 54.8C488.494 55.184 488.302 55.504 488.11 55.76C486.958 57.104 485.326 58.384 483.214 59.6C481.102 60.816 479.214 61.616 477.55 62C477.294 62.064 477.006 62.096 476.686 62.096C476.366 62.16 476.046 62.192 475.726 62.192ZM514.295 62.768C512.567 62.768 511.415 62.096 510.839 60.752C510.327 59.344 510.071 57.936 510.071 56.528C510.071 54.672 510.263 52.816 510.647 50.96C511.031 49.104 511.287 47.248 511.415 45.392C510.647 46.352 509.559 47.728 508.151 49.52C506.743 51.248 505.175 53.072 503.447 54.992C501.719 56.848 500.023 58.416 498.359 59.696C496.695 60.976 495.255 61.616 494.039 61.616C491.671 61.616 490.487 60.368 490.487 57.872C490.487 56.208 490.807 54.512 491.447 52.784C492.151 50.992 492.951 49.264 493.847 47.6C494.807 45.872 495.671 44.304 496.439 42.896H496.247C495.863 42.896 495.671 42.736 495.671 42.416C495.671 42.288 495.671 42.192 495.671 42.128C495.735 42.064 495.767 42 495.767 41.936C496.663 40.4 497.399 39.088 497.975 38C498.551 36.848 499.319 35.984 500.279 35.408C501.239 34.832 502.711 34.544 504.695 34.544C505.015 34.544 505.175 34.736 505.175 35.12C505.175 35.568 504.823 36.432 504.119 37.712C503.415 38.928 502.647 40.144 501.815 41.36C500.983 42.576 500.407 43.44 500.087 43.952C499.575 44.784 498.935 46.032 498.167 47.696C497.399 49.36 496.695 51.024 496.055 52.688C495.479 54.352 495.191 55.664 495.191 56.624C495.191 56.944 495.223 57.264 495.287 57.584C495.415 57.84 495.671 57.968 496.055 57.968C496.695 57.968 497.431 57.68 498.263 57.104C499.095 56.464 499.735 55.952 500.183 55.568C502.679 53.456 504.983 51.088 507.095 48.464C509.207 45.776 511.127 43.056 512.855 40.304C513.047 39.92 513.143 39.568 513.143 39.248C513.335 38.48 513.623 37.744 514.007 37.04C514.391 36.336 514.903 35.76 515.543 35.312C516.055 34.992 516.759 34.736 517.655 34.544C518.551 34.352 519.255 34.256 519.767 34.256C520.023 34.256 520.343 34.32 520.727 34.448C521.111 34.512 521.303 34.704 521.303 35.024C521.303 35.344 521.015 35.856 520.439 36.56C519.927 37.264 519.351 37.968 518.711 38.672C518.135 39.312 517.719 39.856 517.463 40.304C516.887 41.328 516.375 42.832 515.927 44.816C515.479 46.736 515.127 48.688 514.871 50.672C514.615 52.656 514.487 54.288 514.487 55.568C514.487 56.4 514.583 57.328 514.775 58.352C514.967 59.376 515.607 59.888 516.695 59.888C517.783 59.888 518.871 59.472 519.959 58.64C521.111 57.744 522.103 56.88 522.935 56.048C523.767 55.152 524.247 54.704 524.375 54.704C524.439 54.704 524.471 54.768 524.471 54.896C524.471 55.472 524.151 56.144 523.511 56.912C522.871 57.68 522.167 58.416 521.399 59.12C520.695 59.76 520.151 60.24 519.767 60.56C518.999 61.136 518.135 61.648 517.175 62.096C516.215 62.544 515.255 62.768 514.295 62.768ZM522.003 64.208C521.747 64.208 521.171 64.144 520.275 64.016C519.379 63.952 518.931 63.664 518.931 63.152C518.931 62.832 519.155 62.48 519.603 62.096C520.115 61.776 520.499 61.52 520.755 61.328C522.547 60.304 524.787 59.568 527.475 59.12C530.163 58.608 532.499 58.256 534.483 58.064C534.611 57.808 534.675 57.552 534.675 57.296C534.675 56.272 534.195 55.344 533.235 54.512C532.275 53.68 531.155 52.848 529.875 52.016C528.659 51.184 527.571 50.256 526.611 49.232C525.651 48.144 525.171 46.896 525.171 45.488C525.171 45.104 525.235 44.752 525.363 44.432C525.491 44.048 525.619 43.696 525.747 43.376C527.219 40.624 529.203 38.544 531.699 37.136C534.259 35.728 537.011 34.704 539.955 34.064C540.211 33.936 540.467 33.872 540.723 33.872C540.979 33.872 541.235 33.872 541.491 33.872C542.387 33.872 543.123 34.128 543.699 34.64C544.339 35.088 544.659 35.792 544.659 36.752C544.659 37.968 544.211 39.152 543.315 40.304C542.419 41.392 541.395 42.096 540.243 42.416H539.955C539.891 42.416 539.859 42.352 539.859 42.224C539.859 41.712 539.955 41.2 540.147 40.688C540.403 40.176 540.531 39.664 540.531 39.152C540.531 38.256 540.179 37.648 539.475 37.328C538.835 36.944 538.099 36.752 537.267 36.752C535.475 36.752 533.747 37.328 532.083 38.48C530.483 39.568 529.683 41.072 529.683 42.992C529.683 44.528 530.099 45.776 530.931 46.736C531.827 47.696 532.819 48.528 533.907 49.232C534.995 49.936 535.955 50.704 536.787 51.536C537.683 52.304 538.131 53.328 538.131 54.608C538.131 55.248 537.971 55.856 537.651 56.432C537.395 57.008 537.107 57.552 536.787 58.064C537.363 58 537.907 57.968 538.419 57.968C538.995 57.904 539.571 57.872 540.147 57.872C540.531 57.872 540.723 57.968 540.723 58.16C540.723 58.416 540.595 58.608 540.339 58.736C540.083 58.864 539.859 58.96 539.667 59.024C539.027 59.088 538.387 59.184 537.747 59.312C537.107 59.44 536.435 59.568 535.731 59.696C533.939 61.36 531.795 62.512 529.299 63.152C526.867 63.856 524.435 64.208 522.003 64.208ZM554.121 30.896C553.929 30.896 553.801 30.672 553.737 30.224C553.737 29.712 553.737 29.392 553.737 29.264C553.737 29.072 553.769 28.656 553.833 28.016C553.897 27.376 554.089 27.024 554.409 26.96C555.305 26.832 556.201 26.672 557.097 26.48C557.993 26.288 558.889 26.064 559.785 25.808C559.913 25.744 560.105 25.712 560.361 25.712C560.681 25.712 560.841 25.872 560.841 26.192C560.841 26.896 560.393 27.632 559.497 28.4C558.665 29.104 557.705 29.712 556.617 30.224C555.593 30.672 554.761 30.896 554.121 30.896ZM546.345 62C543.209 62 541.641 60.4 541.641 57.2C541.641 55.856 541.833 54.48 542.217 53.072C542.665 51.664 543.145 50.352 543.657 49.136C544.233 47.728 544.873 46.352 545.577 45.008C546.281 43.664 546.985 42.32 547.689 40.976C548.009 40.4 548.297 39.824 548.553 39.248C548.873 38.608 549.193 38 549.513 37.424C549.833 36.976 550.441 36.592 551.337 36.272C552.233 35.952 552.937 35.792 553.449 35.792C553.513 35.792 553.513 35.824 553.449 35.888C553.385 35.888 553.353 35.888 553.353 35.888C553.417 35.888 553.449 35.92 553.449 35.984C553.577 35.856 553.737 35.792 553.929 35.792C554.185 35.792 554.345 35.92 554.409 36.176C554.473 36.368 554.505 36.56 554.505 36.752C554.505 37.2 554.313 37.872 553.929 38.768C553.609 39.664 553.193 40.528 552.681 41.36C552.233 42.128 551.785 42.608 551.337 42.8C550.761 44.144 549.993 45.616 549.033 47.216C548.137 48.816 547.305 50.448 546.537 52.112C545.769 53.712 545.385 55.28 545.385 56.816C545.385 58.608 546.345 59.504 548.265 59.504C549.161 59.504 550.121 59.216 551.145 58.64C552.233 58.064 553.289 57.392 554.313 56.624C555.337 55.792 556.201 55.088 556.905 54.512C557.673 53.936 558.153 53.648 558.345 53.648C558.409 53.648 558.441 53.68 558.441 53.744C558.441 54 558.345 54.288 558.153 54.608C557.961 54.864 557.801 55.056 557.673 55.184C556.905 56.208 555.881 57.264 554.601 58.352C553.321 59.376 551.945 60.24 550.473 60.944C549.065 61.648 547.689 62 546.345 62ZM557.251 63.248C557.187 63.248 557.091 63.216 556.963 63.152C556.835 63.152 556.771 63.12 556.771 63.056V62.768C556.963 62.256 557.155 61.712 557.347 61.136C557.603 60.56 557.794 59.984 557.923 59.408C558.563 57.104 559.011 54.768 559.267 52.4C559.523 50.032 559.651 47.664 559.651 45.296C559.651 43.248 559.555 41.232 559.363 39.248C559.363 38.864 559.299 38.48 559.171 38.096C559.107 37.648 559.075 37.232 559.075 36.848C559.075 36.528 559.267 36.336 559.651 36.272C560.099 36.208 560.451 36.176 560.707 36.176C561.091 36.176 561.699 36.24 562.531 36.368C563.427 36.496 563.971 36.784 564.163 37.232C564.291 37.424 564.355 37.84 564.355 38.48C564.419 39.12 564.451 39.76 564.451 40.4C564.515 41.04 564.547 41.456 564.547 41.648C564.547 45.808 564.067 49.872 563.107 53.84C564.195 52.24 565.539 50.224 567.139 47.792C568.803 45.296 570.627 42.8 572.611 40.304C574.595 37.744 576.643 35.568 578.755 33.776C580.931 31.92 583.011 30.8 584.995 30.416H585.763C586.083 30.416 586.403 30.48 586.723 30.608C587.107 30.736 587.299 31.024 587.299 31.472C587.299 32.176 586.915 32.624 586.147 32.816C585.955 32.88 585.731 32.912 585.475 32.912C585.283 32.912 585.091 32.944 584.899 33.008C584.003 33.264 583.107 33.712 582.211 34.352C581.379 34.928 580.611 35.536 579.906 36.176C576.899 38.736 574.115 41.68 571.555 45.008C568.995 48.336 566.595 51.632 564.355 54.896C563.907 55.536 563.427 56.176 562.915 56.816C562.467 57.456 562.083 58.128 561.763 58.832C561.571 59.088 561.411 59.408 561.283 59.792C561.219 60.176 561.123 60.528 560.995 60.848C560.739 61.424 560.227 61.968 559.459 62.48C558.691 62.992 557.955 63.248 557.251 63.248ZM598.598 62.768C596.87 62.768 595.718 62.096 595.142 60.752C594.566 59.344 594.278 57.936 594.278 56.528C594.278 54.928 594.406 53.328 594.662 51.728C594.918 50.128 595.206 48.56 595.526 47.024C594.886 48.112 593.862 49.52 592.454 51.248C591.046 52.976 589.478 54.736 587.75 56.528C586.022 58.256 584.262 59.728 582.47 60.944C580.742 62.096 579.206 62.672 577.862 62.672C577.094 62.672 576.582 62.416 576.326 61.904C576.134 61.392 576.038 60.816 576.038 60.176C576.038 58.832 576.358 57.136 576.998 55.088C577.638 53.04 578.534 50.896 579.686 48.656C580.838 46.352 582.118 44.24 583.526 42.32C584.998 40.4 586.502 38.864 588.038 37.712C589.638 36.496 591.238 35.952 592.838 36.08C593.542 35.696 594.31 35.344 595.142 35.024C595.974 34.704 596.806 34.544 597.638 34.544C598.278 34.544 598.918 34.608 599.558 34.736C600.262 34.8 600.934 34.896 601.574 35.024C601.894 34.896 602.246 34.768 602.63 34.64C603.014 34.512 603.398 34.448 603.782 34.448C604.486 34.448 604.838 34.768 604.838 35.408C604.838 35.728 604.646 36.368 604.262 37.328C603.942 38.224 603.558 39.088 603.11 39.92C602.726 40.688 602.406 41.136 602.15 41.264C601.574 42.416 601.03 43.92 600.518 45.776C600.006 47.568 599.59 49.424 599.27 51.344C598.95 53.264 598.79 54.896 598.79 56.24C598.79 56.944 598.886 57.744 599.078 58.64C599.334 59.472 599.942 59.888 600.902 59.888C601.99 59.888 603.078 59.472 604.166 58.64C605.318 57.744 606.31 56.88 607.142 56.048C607.974 55.152 608.454 54.704 608.582 54.704C608.71 54.704 608.774 54.768 608.774 54.896C608.774 55.472 608.454 56.144 607.814 56.912C607.174 57.68 606.47 58.416 605.702 59.12C604.934 59.76 604.358 60.24 603.974 60.56C603.206 61.136 602.342 61.648 601.382 62.096C600.486 62.544 599.558 62.768 598.598 62.768ZM581.222 59.408C581.542 59.408 581.926 59.28 582.374 59.024C582.822 58.704 583.174 58.448 583.43 58.256C587.27 55.504 590.278 52.336 592.454 48.752C594.63 45.168 596.742 41.328 598.79 37.232C598.534 37.104 598.246 37.008 597.926 36.944C597.606 36.88 597.286 36.848 596.966 36.848C595.75 36.848 594.534 37.168 593.318 37.808C592.166 38.448 591.206 39.216 590.438 40.112C589.222 41.392 587.974 43.088 586.694 45.2C585.478 47.248 584.358 49.392 583.334 51.632C582.31 53.808 581.542 55.76 581.03 57.488C580.966 57.68 580.902 57.872 580.838 58.064C580.774 58.256 580.742 58.48 580.742 58.736C580.742 59.184 580.902 59.408 581.222 59.408Z"
    fill="black" />
</svg>